:FULLY-SPECIFIED
:FORCE-ALL-JOINTS-BE-3DOF
:DEGREES
1
root -2.95645 16.8291 -36.2757 3.79203 -0.409345 -2.77144
lfemur -18.1857 -3.85478 -7.37129
ltibia 37.6337 0 0
lfoot -17.8071 6.78532 0
ltoes -26.1578 0 0
rfemur -19.1521 0.15077 14.7318
rtibia 40.3652 0 0
rfoot -23.1652 -2.86285 0
rtoes -21.0274 0 0
lowerback 7.02591 2.55716 -1.97249
upperback -3.14202 3.31583 1.27229
thorax -7.43554 1.75645 1.99661
lowerneck -4.68188 -4.04088 -6.84108
upperneck 4.69893 -5.30737 6.47589
head 2.76948 -2.5844 3.14763
lclavicle 1.91563e-15 -9.24349e-15 0
lhumerus -27.0689 -5.33108 89.6453
lradius 25.7364 0 0
lwrist -30.6252 0 0
lhand -28.8405 29.9909 0
lfingers 7.12502 0 0
lthumb -2.19771 59.9594 0
rclavicle 1.91563e-15 -9.24349e-15 0
rhumerus -32.8355 4.71181 -81.727
rradius 32.9783 0 0
rwrist 3.84135 0 0
rhand -24.1523 -25.0894 0
rfingers 7.12502 0 0
rthumb 2.33029 -55.0564 0
2
root -2.94305 16.8243 -36.2733 3.78307 -0.133657 -2.73508
lfemur -18.1403 -3.83726 -7.41103
ltibia 37.6745 -0 0
lfoot -17.8378 6.84883 -0.00550227
ltoes -26.1005 0 0
rfemur -19.2594 0.136735 14.7155
rtibia 40.4188 -0 0
rfoot -23.0915 -2.82397 0.00812329
rtoes -20.9935 0 0
lowerback 7.05994 2.54573 -1.9984
upperback -3.13374 3.29801 1.2747
thorax -7.44411 1.7489 2.01772
lowerneck -4.68243 -4.03487 -6.83062
upperneck 4.70311 -5.29923 6.46004
head 2.76964 -2.58053 3.14082
lclavicle 1.88759e-15 -9.21212e-15 2.44864e-33
lhumerus -26.9714 -5.46253 89.6823
lradius 25.8211 -0 0
lwrist -30.58 0 0
lhand -28.8302 30.0266 0.00102446
lfingers 7.12502 -0 0
lthumb -2.1878 59.9951 0.000990225
rclavicle 1.88759e-15 -9.21212e-15 2.44864e-33
rhumerus -32.7322 4.79487 -81.7051
rradius 33.2456 -0 0
rwrist 3.69252 0 0
rhand -23.8006 -25.0618 0.0415471
rfingers 7.12502 -0 0
rthumb 2.50565 -55.1595 -0.0570807
3
root -2.92965 16.8195 -36.2709 3.77429 0.142036 -2.69877
lfemur -18.095 -3.81972 -7.45075
ltibia 37.7153 -0 0
lfoot -17.8685 6.91235 -0.0109705
ltoes -26.0432 0 0
rfemur -19.3667 0.122669 14.6993
rtibia 40.4724 -0 0
rfoot -23.0178 -2.78508 0.0161966
rtoes -20.9596 0 0
lowerback 7.09398 2.53431 -2.02432
upperback -3.12545 3.28019 1.2771
thorax -7.45267 1.74135 2.03884
lowerneck -4.68298 -4.02885 -6.82017
upperneck 4.70728 -5.2911 6.44419
head 2.76981 -2.57665 3.13401
lclavicle 1.85955e-15 -9.18075e-15 4.88193e-33
lhumerus -26.8739 -5.59405 89.719
lradius 25.9057 -0 0
lwrist -30.5347 0 0
lhand -28.82 30.0623 0.00204252
lfingers 7.12502 -0 0
lthumb -2.17788 60.0309 0.00197426
rclavicle 1.85955e-15 -9.18075e-15 4.88193e-33
rhumerus -32.6289 4.87788 -81.6831
rradius 33.5129 -0 0
rwrist 3.54369 0 0
rhand -23.4488 -25.0339 0.082924
rfingers 7.12502 -0 0
rthumb 2.6811 -55.2628 -0.113845
4
root -2.91625 16.8148 -36.2685 3.76568 0.417734 -2.6625
lfemur -18.0497 -3.80214 -7.49045
ltibia 37.756 -0 0
lfoot -17.8993 6.97587 -0.0164046
ltoes -25.986 0 0
rfemur -19.474 0.108573 14.6831
rtibia 40.526 -0 0
rfoot -22.9441 -2.74617 0.0242198
rtoes -20.9258 0 0
lowerback 7.12802 2.52291 -2.05024
upperback -3.11717 3.26237 1.2795
thorax -7.46125 1.73381 2.05995
lowerneck -4.68353 -4.02284 -6.80971
upperneck 4.71146 -5.28296 6.42834
head 2.76997 -2.57278 3.12719
lclavicle 1.83151e-15 -9.14938e-15 7.29987e-33
lhumerus -26.7765 -5.72563 89.7556
lradius 25.9904 -0 0
lwrist -30.4895 0 0
lhand -28.8097 30.0981 0.00305417
lfingers 7.12502 -0 0
lthumb -2.16796 60.0666 0.00295211
rclavicle 1.83151e-15 -9.14938e-15 7.29987e-33
rhumerus -32.5256 4.96086 -81.661
rradius 33.7802 -0 0
rwrist 3.39487 0 0
rhand -23.0971 -25.0058 0.124129
rfingers 7.12502 -0 0
rthumb 2.85666 -55.3663 -0.170293
5
root -2.90285 16.81 -36.2661 3.75725 0.693438 -2.62626
lfemur -18.0044 -3.78453 -7.53015
ltibia 37.7968 -0 0
lfoot -17.93 7.03939 -0.0218047
ltoes -25.9287 0 0
rfemur -19.5813 0.0944466 14.6669
rtibia 40.5796 -0 0
rfoot -22.8704 -2.70726 0.032193
rtoes -20.8919 0 0
lowerback 7.16206 2.51153 -2.07617
upperback -3.10889 3.24454 1.2819
thorax -7.46982 1.72626 2.08107
lowerneck -4.68408 -4.01683 -6.79926
upperneck 4.71563 -5.27482 6.4125
head 2.77013 -2.5689 3.12038
lclavicle 1.80347e-15 -9.11801e-15 9.70246e-33
lhumerus -26.6792 -5.85727 89.7919
lradius 26.075 -0 0
lwrist -30.4443 0 0
lhand -28.7994 30.1338 0.00405943
lfingers 7.12502 -0 0
lthumb -2.15805 60.1024 0.00392378
rclavicle 1.80347e-15 -9.11801e-15 9.70246e-33
rhumerus -32.4222 5.04379 -81.6386
rradius 34.0475 -0 0
rwrist 3.24604 0 0
rhand -22.7453 -24.9775 0.165161
rfingers 7.12502 -0 0
rthumb 3.03233 -55.4699 -0.226424
6
root -2.88945 16.8052 -36.2637 3.74899 0.969148 -2.59007
lfemur -17.9591 -3.76689 -7.56982
ltibia 37.8376 -0 0
lfoot -17.9607 7.10291 -0.0271707
ltoes -25.8714 0 0
rfemur -19.6886 0.08029 14.6508
rtibia 40.6332 -0 0
rfoot -22.7967 -2.66834 0.0401161
rtoes -20.858 0 0
lowerback 7.19611 2.50016 -2.10211
upperback -3.10061 3.22672 1.2843
thorax -7.4784 1.71873 2.10218
lowerneck -4.68462 -4.01082 -6.7888
upperneck 4.7198 -5.26668 6.39665
head 2.7703 -2.56503 3.11357
lclavicle 1.77543e-15 -9.08664e-15 1.20897e-32
lhumerus -26.5819 -5.98897 89.828
lradius 26.1597 -0 0
lwrist -30.3991 0 0
lhand -28.7892 30.1695 0.00505828
lfingers 7.12502 -0 0
lthumb -2.14813 60.1381 0.00488925
rclavicle 1.77543e-15 -9.08664e-15 1.20897e-32
rhumerus -32.3187 5.12669 -81.6162
rradius 34.3147 -0 0
rwrist 3.09721 0 0
rhand -22.3935 -24.9488 0.206018
rfingers 7.12502 -0 0
rthumb 3.20809 -55.5737 -0.282237
7
root -2.87605 16.8004 -36.2613 3.7409 1.24486 -2.55391
lfemur -17.9138 -3.74922 -7.60949
ltibia 37.8784 -0 0
lfoot -17.9915 7.16644 -0.0325027
ltoes -25.8141 0 0
rfemur -19.7959 0.0661031 14.6347
rtibia 40.6868 -0 0
rfoot -22.723 -2.62941 0.0479892
rtoes -20.8241 0 0
lowerback 7.23017 2.4888 -2.12805
upperback -3.09233 3.2089 1.2867
thorax -7.48698 1.71119 2.1233
lowerneck -4.68517 -4.0048 -6.77835
upperneck 4.72396 -5.25854 6.3808
head 2.77046 -2.56115 3.10676
lclavicle 1.7474e-15 -9.05527e-15 1.44616e-32
lhumerus -26.4847 -6.12074 89.8639
lradius 26.2443 -0 0
lwrist -30.3538 0 0
lhand -28.7789 30.2052 0.00605074
lfingers 7.12502 -0 0
lthumb -2.13821 60.1739 0.00584854
rclavicle 1.7474e-15 -9.05527e-15 1.44616e-32
rhumerus -32.2152 5.20954 -81.5935
rradius 34.582 -0 0
rwrist 2.94838 0 0
rhand -22.0416 -24.92 0.246698
rfingers 7.12502 -0 0
rthumb 3.38396 -55.6777 -0.33773
